<svg width="41" height="40" viewBox="0 0 41 40" fill="none" xmlns="http://www.w3.org/2000/svg">
<path d="M32.1668 10.8333H30.0335L29.5002 9.16662C29.1544 8.18867 28.5131 7.34246 27.665 6.74522C26.8169 6.14799 25.8041 5.82929 24.7668 5.83329H16.2335C15.1861 5.83525 14.1657 6.16609 13.3164 6.77913C12.4672 7.39217 11.8318 8.25644 11.5002 9.24996L10.9668 10.9166H8.8335C7.50741 10.9166 6.23564 11.4434 5.29796 12.3811C4.36028 13.3188 3.8335 14.5905 3.8335 15.9166V29.25C3.8335 30.576 4.36028 31.8478 5.29796 32.7855C6.23564 33.7232 7.50741 34.25 8.8335 34.25H32.1668C33.4929 34.25 34.7647 33.7232 35.7024 32.7855C36.64 31.8478 37.1668 30.576 37.1668 29.25V15.9166C37.1779 15.253 37.0567 14.5939 36.8104 13.9776C36.5641 13.3613 36.1976 12.8002 35.7322 12.3271C35.2668 11.8539 34.7118 11.4782 34.0997 11.2217C33.4876 10.9652 32.8305 10.8332 32.1668 10.8333ZM33.8335 29.1666C33.8335 29.6086 33.6579 30.0326 33.3453 30.3451C33.0328 30.6577 32.6089 30.8333 32.1668 30.8333H8.8335C8.39147 30.8333 7.96755 30.6577 7.65498 30.3451C7.34242 30.0326 7.16683 29.6086 7.16683 29.1666V15.8333C7.16683 15.3913 7.34242 14.9673 7.65498 14.6548C7.96755 14.3422 8.39147 14.1666 8.8335 14.1666H12.1668C12.5303 14.1856 12.8899 14.0851 13.1909 13.8804C13.4918 13.6758 13.7175 13.3783 13.8335 13.0333L14.7335 10.3C14.8453 9.96892 15.0583 9.6814 15.3424 9.47803C15.6266 9.27465 15.9674 9.16572 16.3168 9.16662H24.8502C25.1996 9.16572 25.5404 9.27465 25.8245 9.47803C26.1087 9.6814 26.3217 9.96892 26.4335 10.3L27.3335 13.0333C27.4404 13.3512 27.6408 13.6294 27.9084 13.8316C28.1761 14.0338 28.4985 14.1506 28.8335 14.1666H32.1668C32.6089 14.1666 33.0328 14.3422 33.3453 14.6548C33.6579 14.9673 33.8335 15.3913 33.8335 15.8333V29.1666ZM20.5002 14.1666C19.1816 14.1666 17.8927 14.5576 16.7964 15.2902C15.7 16.0227 14.8455 17.0639 14.341 18.2821C13.8364 19.5002 13.7044 20.8407 13.9616 22.1339C14.2188 23.4271 14.8538 24.615 15.7861 25.5473C16.7185 26.4797 17.9064 27.1146 19.1996 27.3719C20.4928 27.6291 21.8332 27.4971 23.0514 26.9925C24.2696 26.4879 25.3107 25.6334 26.0433 24.5371C26.7758 23.4408 27.1668 22.1518 27.1668 20.8333C27.1668 19.0652 26.4645 17.3695 25.2142 16.1192C23.964 14.869 22.2683 14.1666 20.5002 14.1666ZM20.5002 24.1666C19.8409 24.1666 19.1964 23.9711 18.6483 23.6049C18.1001 23.2386 17.6729 22.718 17.4206 22.1089C17.1683 21.4998 17.1023 20.8296 17.2309 20.183C17.3595 19.5364 17.677 18.9424 18.1431 18.4763C18.6093 18.0101 19.2033 17.6926 19.8499 17.564C20.4965 17.4354 21.1667 17.5014 21.7758 17.7537C22.3849 18.006 22.9055 18.4332 23.2717 18.9814C23.638 19.5296 23.8335 20.174 23.8335 20.8333C23.8335 21.7173 23.4823 22.5652 22.8572 23.1903C22.2321 23.8154 21.3842 24.1666 20.5002 24.1666Z" fill="white"/>
</svg>
