<svg width="36" height="36" viewBox="0 0 36 36" fill="none" xmlns="http://www.w3.org/2000/svg">
<path d="M18 33C14.8 33 11.919 32.0875 9.357 30.2625C6.795 28.4375 4.976 26.05 3.9 23.1C3.775 22.725 3.8125 22.375 4.0125 22.05C4.2125 21.725 4.5125 21.5 4.9125 21.375C5.3125 21.25 5.694 21.294 6.057 21.507C6.42 21.72 6.676 22.0135 6.825 22.3875C7.725 24.6625 9.1875 26.5 11.2125 27.9C13.2375 29.3 15.5 30 18 30C20.15 30 22.15 29.469 24 28.407C25.85 27.345 27.3 25.876 28.35 24H25.5C25.075 24 24.719 23.856 24.432 23.568C24.145 23.28 24.001 22.924 24 22.5C23.999 22.076 24.143 21.72 24.432 21.432C24.721 21.144 25.077 21 25.5 21H31.5C31.925 21 32.2815 21.144 32.5695 21.432C32.8575 21.72 33.001 22.076 33 22.5V28.5C33 28.925 32.856 29.2815 32.568 29.5695C32.28 29.8575 31.924 30.001 31.5 30C31.076 29.999 30.72 29.855 30.432 29.568C30.144 29.281 30 28.925 30 28.5V27C28.575 28.9 26.8125 30.375 24.7125 31.425C22.6125 32.475 20.375 33 18 33ZM18 6C15.85 6 13.85 6.5315 12 7.5945C10.15 8.6575 8.7 10.126 7.65 12H10.5C10.925 12 11.2815 12.144 11.5695 12.432C11.8575 12.72 12.001 13.076 12 13.5C11.999 13.924 11.855 14.2805 11.568 14.5695C11.281 14.8585 10.925 15.002 10.5 15H4.5C4.075 15 3.719 14.856 3.432 14.568C3.145 14.28 3.001 13.924 3 13.5V7.5C3 7.075 3.144 6.719 3.432 6.432C3.72 6.145 4.076 6.001 4.5 6C4.924 5.999 5.2805 6.143 5.5695 6.432C5.8585 6.721 6.002 7.077 6 7.5V9C7.425 7.1 9.1875 5.625 11.2875 4.575C13.3875 3.525 15.625 3 18 3C21.2 3 24.0815 3.9125 26.6445 5.7375C29.2075 7.5625 31.026 9.95 32.1 12.9C32.225 13.275 32.1875 13.625 31.9875 13.95C31.7875 14.275 31.4875 14.5 31.0875 14.625C30.6875 14.75 30.306 14.706 29.943 14.493C29.58 14.28 29.324 13.9865 29.175 13.6125C28.275 11.3375 26.8125 9.5 24.7875 8.1C22.7625 6.7 20.5 6 18 6ZM18 22.5C16.75 22.5 15.6875 22.0625 14.8125 21.1875C13.9375 20.3125 13.5 19.25 13.5 18C13.5 16.75 13.9375 15.6875 14.8125 14.8125C15.6875 13.9375 16.75 13.5 18 13.5C19.25 13.5 20.3125 13.9375 21.1875 14.8125C22.0625 15.6875 22.5 16.75 22.5 18C22.5 19.25 22.0625 20.3125 21.1875 21.1875C20.3125 22.0625 19.25 22.5 18 22.5Z" fill="white"/>
</svg>
