<svg width="41" height="40" viewBox="0 0 41 40" fill="none" xmlns="http://www.w3.org/2000/svg">
<g id="home">
<path id="Vector" d="M10.5001 31.6667H15.5001V23.3334C15.5001 22.8612 15.6601 22.4656 15.9801 22.1467C16.3001 21.8278 16.6956 21.6678 17.1667 21.6667H23.8334C24.3056 21.6667 24.7017 21.8267 25.0217 22.1467C25.3417 22.4667 25.5012 22.8623 25.5001 23.3334V31.6667H30.5001V16.6667L20.5001 9.16671L10.5001 16.6667V31.6667ZM7.16675 31.6667V16.6667C7.16675 16.1389 7.28508 15.6389 7.52175 15.1667C7.75841 14.6945 8.08453 14.3056 8.50008 14L18.5001 6.50004C19.0834 6.0556 19.7501 5.83337 20.5001 5.83337C21.2501 5.83337 21.9167 6.0556 22.5001 6.50004L32.5001 14C32.9167 14.3056 33.2434 14.6945 33.4801 15.1667C33.7167 15.6389 33.8345 16.1389 33.8334 16.6667V31.6667C33.8334 32.5834 33.5067 33.3684 32.8534 34.0217C32.2001 34.675 31.4156 35.0012 30.5001 35H23.8334C23.3612 35 22.9656 34.84 22.6467 34.52C22.3279 34.2 22.1679 33.8045 22.1667 33.3334V25H18.8334V33.3334C18.8334 33.8056 18.6734 34.2017 18.3534 34.5217C18.0334 34.8417 17.6379 35.0012 17.1667 35H10.5001C9.58341 35 8.79897 34.6739 8.14675 34.0217C7.49453 33.3695 7.16786 32.5845 7.16675 31.6667Z" fill="white"/>
</g>
</svg>
