<svg width="16" height="16" viewBox="0 0 16 16" fill="none" xmlns="http://www.w3.org/2000/svg">
<g id="Group">
<g id="Layer_90">
<path id="Shape" fill-rule="evenodd" clip-rule="evenodd" d="M15.4998 13.25V2.75C15.4998 1.50736 14.4924 0.5 13.2498 0.5H2.74976C1.50712 0.5 0.499756 1.50736 0.499756 2.75V13.25C0.499756 14.4926 1.50712 15.5 2.74976 15.5H13.2498C14.4924 15.5 15.4998 14.4926 15.4998 13.25ZM7.24533 4.25003C7.24533 4.45001 7.32519 4.6417 7.46718 4.78253C7.68175 4.99887 8.00588 5.0639 8.28729 4.94706C8.5687 4.83021 8.75145 4.55473 8.74968 4.25003C8.75145 3.94533 8.5687 3.66984 8.28729 3.553C8.00588 3.43616 7.68175 3.50118 7.46718 3.71753C7.32519 3.85835 7.24533 4.05005 7.24533 4.25003ZM13.9996 2.75012C13.9996 2.3359 13.6638 2.00012 13.2496 2.00012H2.74959C2.33537 2.00012 1.99959 2.3359 1.99959 2.75012V13.2501C1.99959 13.6643 2.33537 14.0001 2.74959 14.0001H13.2496C13.6638 14.0001 13.9996 13.6643 13.9996 13.2501V2.75012ZM8.74959 11H8.85459C9.2688 11 9.60459 11.3358 9.60459 11.75C9.60459 12.1643 9.2688 12.5 8.85459 12.5H7.14459C6.73037 12.5 6.39459 12.1643 6.39459 11.75C6.39459 11.3358 6.73037 11 7.14459 11H7.24959V7.25005C6.83537 7.25005 6.49959 6.91426 6.49959 6.50005C6.49959 6.08583 6.83537 5.75005 7.24959 5.75005H7.99959C8.4138 5.75005 8.74959 6.08583 8.74959 6.50005V11Z" fill="#324053"/>
</g>
</g>
</svg>
