<svg width="41" height="40" viewBox="0 0 41 40" fill="none" xmlns="http://www.w3.org/2000/svg">
<g id="mushroom">
<path id="Vector" d="M10.1782 16.8751L10.193 16.9047L10.2116 16.932C10.732 17.6996 11.6223 18.3252 12.7161 18.8159C13.7062 19.2601 14.8989 19.6099 16.2215 19.854L15.3631 30.8763C15.2987 31.5525 15.501 32.1901 15.9484 32.7355L15.9487 32.7358C16.8727 33.86 18.7103 34.4767 20.7015 34.4767C22.6877 34.4767 24.5306 33.8625 25.4314 32.7323C25.8753 32.1884 26.0783 31.5524 26.0141 30.8769L25.1804 19.854C26.5057 19.6084 27.7043 19.2521 28.6971 18.8046C29.7885 18.3126 30.6782 17.6894 31.1875 16.9377C31.4222 16.6098 31.4442 16.2153 31.3703 15.8836L31.3703 15.8833C30.1446 10.3905 25.7897 6.5 20.7016 6.5H20.7013C15.6148 6.5 11.2611 10.388 10.0338 15.8779C9.94534 16.2411 10.0428 16.6044 10.1782 16.8751ZM23.6931 31.0685L23.6828 31.0802L23.6733 31.0925C23.5592 31.2401 23.2533 31.4677 22.7198 31.6588C22.2022 31.8441 21.5164 31.9779 20.7013 31.9779C19.8862 31.9779 19.2003 31.8441 18.6827 31.6588C18.1492 31.4678 17.8434 31.2402 17.7292 31.0925L17.7197 31.0802L17.7094 31.0685C17.7066 31.0653 17.7041 31.0623 17.702 31.0597L18.5305 20.1641C19.2337 20.2197 19.9536 20.2388 20.7012 20.2388C21.4383 20.2388 22.1738 20.1991 22.872 20.1524L23.7216 31.0326C23.7152 31.0418 23.706 31.0538 23.6931 31.0685ZM20.7013 17.7403C18.5313 17.7403 16.6497 17.4679 15.1852 17.0617C13.8924 16.7031 12.9711 16.253 12.4515 15.8299C13.6376 11.7333 16.9767 8.9987 20.7013 8.9987C24.4258 8.9987 27.7651 11.7333 28.9511 15.8299C28.4314 16.253 27.51 16.7031 26.2173 17.0617C24.7528 17.4679 22.8712 17.7403 20.7013 17.7403Z" fill="white" stroke="white"/>
</g>
</svg>
