<svg width="25" height="25" viewBox="0 0 25 25" fill="none" xmlns="http://www.w3.org/2000/svg">
<g id="famicons:warning-outline">
<path id="Vector" d="M4.17843 21.7896H20.822C21.0923 21.7895 21.358 21.7193 21.5931 21.5859C21.8282 21.4524 22.0246 21.2603 22.1632 21.0282C22.3018 20.7961 22.3778 20.532 22.3838 20.2618C22.3898 19.9915 22.3256 19.7243 22.1975 19.4863L13.8762 4.03223C13.2859 2.93652 11.7146 2.93652 11.1242 4.03223L2.80294 19.4863C2.6748 19.7243 2.61059 19.9915 2.6166 20.2618C2.62261 20.532 2.69862 20.7961 2.83722 21.0282C2.97583 21.2603 3.17226 21.4524 3.40735 21.5859C3.64243 21.7193 3.90811 21.7895 4.17843 21.7896Z" stroke="white" stroke-linecap="round" stroke-linejoin="round"/>
<path id="Vector_2" d="M12.2199 9.54053L12.5002 15.4976L12.78 9.54297C12.7817 9.5049 12.7756 9.46688 12.7622 9.43123C12.7487 9.39558 12.7281 9.36306 12.7017 9.33564C12.6752 9.30822 12.6434 9.28648 12.6083 9.27175C12.5731 9.25703 12.5354 9.24963 12.4973 9.25C12.4598 9.25036 12.4228 9.25823 12.3885 9.27312C12.3541 9.28802 12.3231 9.30965 12.2973 9.33673C12.2714 9.36381 12.2513 9.3958 12.238 9.4308C12.2247 9.4658 12.2185 9.50311 12.2199 9.54053Z" stroke="white" stroke-linecap="round" stroke-linejoin="round"/>
<path id="Vector_3" d="M12.5 19.3813C12.3099 19.3813 12.1242 19.325 11.9661 19.2194C11.8081 19.1138 11.6849 18.9637 11.6122 18.7881C11.5395 18.6126 11.5204 18.4193 11.5575 18.2329C11.5946 18.0465 11.6861 17.8753 11.8205 17.7409C11.9549 17.6065 12.1261 17.515 12.3125 17.4779C12.4989 17.4409 12.6921 17.4599 12.8677 17.5326C13.0433 17.6054 13.1934 17.7285 13.299 17.8865C13.4046 18.0446 13.4609 18.2304 13.4609 18.4204C13.4609 18.6753 13.3597 18.9197 13.1795 19.0999C12.9993 19.2801 12.7549 19.3813 12.5 19.3813Z" fill="white" stroke="white" stroke-width="0.03125"/>
</g>
</svg>
